<svg width="643.5" height="96.75" viewBox="0 0 643.5 96.75" xmlns="http://www.w3.org/2000/svg"><g id="svgGroup" stroke-linecap="round" fill-rule="nonzero" font-size="9pt" stroke="#17d0e8" stroke-width="0.25mm" fill="#b64eca" style="stroke:#17d0e8;stroke-width:0.25mm;fill:#b64eca"><path d="M 421.85 72.75 L 414.45 72.75 L 397.95 18.7 L 406.8 18.75 L 418.85 58.25 L 431 18.75 L 438.85 18.75 L 450.95 58.25 L 463.05 18.75 L 471.85 18.75 L 455.35 72.75 L 447.95 72.75 L 434.9 31.7 L 421.85 72.75 Z M 8.9 72.75 L 0 72.75 L 0 0.75 L 8.9 0.75 L 8.9 34.55 L 40.4 0.75 L 51.6 0.75 L 18.9 35.7 L 54.15 72.75 L 42.65 72.75 L 8.9 37.55 L 8.9 72.75 Z M 614.1 96.75 L 605.45 96.75 L 615.9 68.35 L 616.05 76.75 L 592.45 18.75 L 601.8 18.75 L 620.3 65.4 L 617.1 65.4 L 634.45 18.75 L 643.5 18.75 L 614.1 96.75 Z M 120.4 58.15 L 129.5 56.7 Q 130.6 61.1 134.55 63.675 Q 138.5 66.25 144.35 66.25 Q 149.9 66.25 153.05 63.95 Q 156.2 61.65 156.2 57.7 Q 156.2 55.4 155.15 53.975 Q 154.1 52.55 150.825 51.3 Q 147.55 50.05 140.95 48.3 Q 133.8 46.4 129.7 44.35 Q 125.6 42.3 123.85 39.6 Q 122.1 36.9 122.1 33.05 Q 122.1 28.3 124.7 24.725 Q 127.3 21.15 131.975 19.2 Q 136.65 17.25 142.85 17.25 Q 149 17.25 153.85 19.2 Q 158.7 21.15 161.675 24.725 Q 164.65 28.3 165.2 33.05 L 156.1 34.7 Q 155.45 30.35 151.925 27.85 Q 148.4 25.35 142.85 25.2 Q 137.6 25 134.325 27.05 Q 131.05 29.1 131.05 32.6 Q 131.05 34.55 132.275 35.95 Q 133.5 37.35 136.825 38.6 Q 140.15 39.85 146.5 41.45 Q 153.65 43.25 157.775 45.375 Q 161.9 47.5 163.65 50.375 Q 165.4 53.25 165.4 57.45 Q 165.4 65.25 159.65 69.725 Q 153.9 74.2 143.8 74.2 Q 134.15 74.2 127.975 69.975 Q 121.8 65.75 120.4 58.15 Z M 173.45 58.15 L 182.55 56.7 Q 183.65 61.1 187.6 63.675 Q 191.55 66.25 197.4 66.25 Q 202.95 66.25 206.1 63.95 Q 209.25 61.65 209.25 57.7 Q 209.25 55.4 208.2 53.975 Q 207.15 52.55 203.875 51.3 Q 200.6 50.05 194 48.3 Q 186.85 46.4 182.75 44.35 Q 178.65 42.3 176.9 39.6 Q 175.15 36.9 175.15 33.05 Q 175.15 28.3 177.75 24.725 Q 180.35 21.15 185.025 19.2 Q 189.7 17.25 195.9 17.25 Q 202.05 17.25 206.9 19.2 Q 211.75 21.15 214.725 24.725 Q 217.7 28.3 218.25 33.05 L 209.15 34.7 Q 208.5 30.35 204.975 27.85 Q 201.45 25.35 195.9 25.2 Q 190.65 25 187.375 27.05 Q 184.1 29.1 184.1 32.6 Q 184.1 34.55 185.325 35.95 Q 186.55 37.35 189.875 38.6 Q 193.2 39.85 199.55 41.45 Q 206.7 43.25 210.825 45.375 Q 214.95 47.5 216.7 50.375 Q 218.45 53.25 218.45 57.45 Q 218.45 65.25 212.7 69.725 Q 206.95 74.2 196.85 74.2 Q 187.2 74.2 181.025 69.975 Q 174.85 65.75 173.45 58.15 Z M 526.8 48.25 L 517.8 48.25 L 517.8 45.05 Q 517.65 35.1 513.75 30.175 Q 509.85 25.25 502.15 25.25 Q 493.9 25.25 489.6 30.55 Q 485.3 35.85 485.3 45.75 Q 485.3 55.3 489.6 60.55 Q 493.9 65.8 501.85 65.8 Q 507.2 65.8 511.15 63.35 Q 515.1 60.9 517.35 56.3 L 525.9 59.25 Q 522.75 66.4 516.425 70.325 Q 510.1 74.25 502.25 74.25 Q 494.3 74.25 488.375 70.725 Q 482.45 67.2 479.15 60.875 Q 475.85 54.55 475.85 46.1 Q 475.85 37.25 479.1 30.775 Q 482.35 24.3 488.175 20.775 Q 494 17.25 501.85 17.25 Q 510 17.25 515.725 21 Q 521.45 24.75 524.325 31.7 Q 527.2 38.65 526.8 48.25 Z M 332.15 72.75 L 309.95 72.75 L 309.95 0.75 L 332.15 0.75 Q 333.25 0.75 336 0.8 Q 338.75 0.85 341.25 1.2 Q 349.6 2.3 355.225 7.275 Q 360.85 12.25 363.7 19.9 Q 366.55 27.55 366.55 36.75 Q 366.55 45.95 363.7 53.6 Q 360.85 61.25 355.225 66.225 Q 349.6 71.2 341.25 72.3 Q 338.75 72.6 335.975 72.675 Q 333.2 72.75 332.15 72.75 Z M 319.1 9.25 L 319.1 64.25 L 332.15 64.25 Q 334.05 64.25 336.4 64.125 Q 338.75 64 340.5 63.7 Q 346.4 62.6 350.05 58.75 Q 353.7 54.9 355.4 49.15 Q 357.1 43.4 357.1 36.75 Q 357.1 29.95 355.375 24.2 Q 353.65 18.45 350 14.65 Q 346.35 10.85 340.5 9.8 Q 338.75 9.45 336.35 9.35 Q 333.95 9.25 332.15 9.25 L 319.1 9.25 Z M 276.95 72.75 L 267.95 72.75 L 267.95 45.7 Q 267.95 41.85 267.275 38.3 Q 266.6 34.75 264.925 31.925 Q 263.25 29.1 260.425 27.45 Q 257.6 25.8 253.3 25.8 Q 249.95 25.8 247.225 26.925 Q 244.5 28.05 242.55 30.35 Q 240.6 32.65 239.525 36.125 Q 238.45 39.6 238.45 44.3 L 232.6 42.5 Q 232.6 34.65 235.425 29.025 Q 238.25 23.4 243.375 20.375 Q 248.5 17.35 255.45 17.35 Q 260.7 17.35 264.4 19 Q 268.1 20.65 270.55 23.375 Q 273 26.1 274.4 29.475 Q 275.8 32.85 276.375 36.325 Q 276.95 39.8 276.95 42.9 L 276.95 72.75 Z M 70.1 72.75 L 61.15 72.75 L 61.15 18.75 L 69.1 18.75 L 69.1 31.8 L 67.8 30.1 Q 68.75 27.6 70.275 25.5 Q 71.8 23.4 73.7 22.05 Q 75.8 20.35 78.45 19.45 Q 81.1 18.55 83.85 18.375 Q 86.6 18.2 89 18.75 L 89 27.1 Q 86.2 26.35 82.85 26.7 Q 79.5 27.05 76.65 29.15 Q 74.05 31 72.625 33.65 Q 71.2 36.3 70.65 39.375 Q 70.1 42.45 70.1 45.65 L 70.1 72.75 Z M 559.1 74.25 Q 551.55 74.25 546.15 70.475 Q 540.75 66.7 537.825 60.25 Q 534.9 53.8 534.9 45.7 Q 534.9 37.6 537.825 31.15 Q 540.75 24.7 546.15 20.975 Q 551.55 17.25 559.05 17.25 Q 566.7 17.25 571.9 20.95 Q 577.1 24.65 579.775 31.1 Q 582.45 37.55 582.45 45.7 Q 582.45 53.75 579.775 60.225 Q 577.1 66.7 571.9 70.475 Q 566.7 74.25 559.1 74.25 Z M 560.2 66.1 Q 565.65 66.1 569.15 63.475 Q 572.65 60.85 574.325 56.225 Q 576 51.6 576 45.7 Q 576 39.7 574.325 35.125 Q 572.65 30.55 569.2 27.975 Q 565.75 25.4 560.45 25.4 Q 554.95 25.4 551.375 28.1 Q 547.8 30.8 546.075 35.4 Q 544.35 40 544.35 45.7 Q 544.35 51.45 546.1 56.075 Q 547.85 60.7 551.375 63.4 Q 554.9 66.1 560.2 66.1 Z M 238.45 72.75 L 229.45 72.75 L 229.45 0.75 L 237.45 0.75 L 237.45 40.5 L 238.45 40.5 L 238.45 72.75 Z M 583.95 72.75 L 576 72.75 L 576 33 L 575 33 L 575 0.75 L 583.95 0.75 L 583.95 72.75 Z M 108.4 72.75 L 99.5 72.75 L 99.5 18.75 L 108.4 18.75 L 108.4 72.75 Z M 387.95 72.75 L 379.05 72.75 L 379.05 18.75 L 387.95 18.75 L 387.95 72.75 Z M 522.2 48.25 L 482.3 48.25 L 482.3 41.1 L 522.2 41.1 L 522.2 48.25 Z M 108.4 9.2 L 99.5 9.2 L 99.5 0 L 108.4 0 L 108.4 9.2 Z M 387.95 9.2 L 379.05 9.2 L 379.05 0 L 387.95 0 L 387.95 9.2 Z" vector-effect="non-scaling-stroke"/></g></svg>